<svg id="Capa_1" enable-background="new 0 0 510 510" height="512" viewBox="0 0 510 510" width="512" xmlns="http://www.w3.org/2000/svg"><g><path d="m438 63v266.4c0 3.45-1.19 6.8-3.38 9.48l-95.92 117.6c-2.84 3.49-7.11 5.52-11.62 5.52h-193.08c-16.54 0-30-13.46-30-30v-369c0-18.23-14.748-33-33-33-8.28 0-15-6.72-15-15s-8.28-15 0-15h319c34.74 0 63 28.26 63 63z" fill="#eef4ff"/><path d="m438 63v266.4c0 3.45-1.19 6.8-3.38 9.48l-95.92 117.6c-2.84 3.49-7.11 5.52-11.62 5.52h-63.08v-462h111c34.74 0 63 28.26 63 63z" fill="#d9e6fc"/><path d="m104 158h-66c-16.569 0-30-13.431-30-30v-80c0-26.51 21.49-48 48-48 26.436 0 48 21.417 48 48z" fill="#bed9fd"/><path d="m502 411c0 54.59-44.41 99-99 99s-99-44.41-99-99 44.41-99 99-99c26.95 0 51.4 10.82 69.27 28.35 0 0-2.982 16.333-.164 19.99 3.384 4.391 18.364 4.35 18.364 4.35 7.36 13.82 11.53 29.59 11.53 46.31z" fill="#97de3d"/><path d="m502 411c0 54.59-44.41 99-99 99v-198c26.945 0 51.409 10.819 69.278 28.342 0 0-1.366 18.228 1.68 22.296s16.525 2.045 16.525 2.045c7.35 13.828 11.517 29.595 11.517 46.317z" fill="#59c36a"/><path d="m490.47 364.69-76.86 76.92c-2.96 2.95-6.8 4.39-10.61 4.39-3.87-.01-7.71-1.49-10.61-4.39l-24-24c-5.85-5.86-5.85-15.36 0-21.22 5.86-5.85 15.36-5.85 21.22 0 11.13 11.14 8.46 8.47 13.39 13.4l69.27-69.44c7.25 7.09 13.41 15.3 18.2 24.34z" fill="#eef4ff"/><path d="m490.483 364.683-76.873 76.927c-2.96 2.95-6.8 4.39-10.61 4.39v-36.21l69.278-69.448c3.863 3.777 7.408 7.881 10.609 12.25 2.808 3.832 5.358 7.868 7.596 12.091z" fill="#d9e6fc"/><g fill="#ff5b5b"><path d="m215 126h-32c-8.284 0-15-6.716-15-15s6.716-15 15-15h32c8.284 0 15 6.716 15 15s-6.716 15-15 15z"/><path d="m215 182h-32c-8.284 0-15-6.716-15-15s6.716-15 15-15h32c8.284 0 15 6.716 15 15s-6.716 15-15 15z"/><path d="m215 246h-32c-8.284 0-15-6.716-15-15s6.716-15 15-15h32c8.284 0 15 6.716 15 15s-6.716 15-15 15z"/><path d="m286 295c0 8.28-6.72 15-15 15h-88c-8.28 0-15-6.72-15-15s6.72-15 15-15h88c8.28 0 15 6.72 15 15z"/><path d="m286 359c0 8.28-6.72 15-15 15h-88c-8.28 0-15-6.72-15-15s6.72-15 15-15h88c8.28 0 15 6.72 15 15z"/></g><path d="m338.955 152.03c-13.838-4.527-29.144-9.996-37.742-16.238-2.816-2.044-3.21-6.163-2.639-9.336 3.103-17.254 29.88-16.434 40.278-8.145l-.187-.156.02-.023c9.625 8.461 24.889 1.661 24.889-11.259 0-4.765-2.229-9.003-5.694-11.75-4.811-4.02-13.519-8.901-24.821-11.177v-4.796c0-8.284-6.716-15-15-15s-15 6.716-15 15v5.738c-37.488 9.751-45.585 56.227-19.47 75.182 9.642 6.998 22.979 12.929 46.037 20.472 14.234 4.656 14.974 14.228 14.146 19.518-1.491 9.544-10.202 19.86-25.803 19.956-15.004.092-19.69-.593-31.202-7.563-7.089-4.291-16.311-2.023-20.601 5.063s-2.023 16.31 5.063 20.6c12.08 7.313 20.981 10.275 31.828 11.352v5.532c0 8.284 6.716 15 15 15s15-6.716 15-15v-6.885c48.112-12.37 58.487-78.881 5.898-96.085z" fill="#59c36a"/><path d="m286 359c0 8.28-6.72 15-15 15h-7v-30h7c8.28 0 15 6.72 15 15z" fill="#e50058"/><path d="m271 310h-7v-30h7c8.28 0 15 6.72 15 15s-6.72 15-15 15z" fill="#e50058"/></g></svg>