<?xml version="1.0" encoding="utf-8"?>
<!-- Generator: Adobe Illustrator 16.0.0, SVG Export Plug-In . SVG Version: 6.00 Build 0)  -->
<!DOCTYPE svg PUBLIC "-//W3C//DTD SVG 1.1//EN" "http://www.w3.org/Graphics/SVG/1.1/DTD/svg11.dtd" [
	<!ENTITY ns_extend "http://ns.adobe.com/Extensibility/1.0/">
	<!ENTITY ns_ai "http://ns.adobe.com/AdobeIllustrator/10.0/">
	<!ENTITY ns_graphs "http://ns.adobe.com/Graphs/1.0/">
	<!ENTITY ns_vars "http://ns.adobe.com/Variables/1.0/">
	<!ENTITY ns_imrep "http://ns.adobe.com/ImageReplacement/1.0/">
	<!ENTITY ns_sfw "http://ns.adobe.com/SaveForWeb/1.0/">
	<!ENTITY ns_custom "http://ns.adobe.com/GenericCustomNamespace/1.0/">
	<!ENTITY ns_adobe_xpath "http://ns.adobe.com/XPath/1.0/">
]>
<svg version="1.1" id="logo_1_" xmlns:x="&ns_extend;" xmlns:i="&ns_ai;" xmlns:graph="&ns_graphs;"
	 xmlns="http://www.w3.org/2000/svg" xmlns:xlink="http://www.w3.org/1999/xlink" x="0px" y="0px" width="560px" height="500px"
	 viewBox="0 0 560 500" enable-background="new 0 0 560 500" xml:space="preserve">
<metadata>
	<sfw  xmlns="&ns_sfw;">
		<slices></slices>
		<sliceSourceBounds  width="558" height="493.73" x="-78.41" y="-47.167" bottomLeftOrigin="true"></sliceSourceBounds>
	</sfw>
</metadata>
<g>
	<g>
		<g>
			<path fill="#4CDA64" d="M417.733,241.237c-28.653,0-51.964-23.311-51.964-51.964s23.311-51.965,51.964-51.965
				s51.964,23.312,51.964,51.965S446.387,241.237,417.733,241.237z M417.733,147.309c-23.139,0-41.964,18.825-41.964,41.965
				c0,23.139,18.825,41.964,41.964,41.964s41.964-18.825,41.964-41.964C459.697,166.134,440.872,147.309,417.733,147.309z"/>
			<path fill="#4CDA64" d="M138.985,241.237c-28.653,0-51.964-23.311-51.964-51.964s23.311-51.965,51.964-51.965
				c28.654,0,51.965,23.312,51.965,51.965S167.639,241.237,138.985,241.237z M138.985,147.309
				c-23.139,0-41.964,18.825-41.964,41.965c0,23.139,18.825,41.964,41.964,41.964c23.14,0,41.965-18.825,41.965-41.964
				C180.95,166.134,162.125,147.309,138.985,147.309z"/>
		</g>
	</g>
	<g>
		<path fill="none" stroke="#4919DB" stroke-width="10" stroke-miterlimit="10" d="M347.582,189.273
			c0-38.682,31.47-70.153,70.151-70.153s70.151,31.471,70.151,70.153"/>
		<path fill="none" stroke="#4919DB" stroke-width="10" stroke-miterlimit="10" d="M68.832,189.273
			c0-38.682,31.471-70.153,70.152-70.153c38.683,0,70.153,31.471,70.153,70.153"/>
		
			<line fill="none" stroke="#4919DB" stroke-width="10" stroke-miterlimit="10" x1="204.138" y1="189.273" x2="352.582" y2="189.273"/>
	</g>
	<path fill="none" stroke="#7E7E7E" stroke-width="10" stroke-miterlimit="10" d="M52.026,162.264c0,0,97.495-344.983,469.476,0"/>
	<polygon fill="none" stroke="#FC7F35" stroke-width="10" stroke-miterlimit="10" points="396.924,90.668 301.924,90.668 
		301.924,37.668 	"/>
</g>
<rect x="7.09" y="246" fill="none" stroke="#FC7F35" stroke-width="10" stroke-miterlimit="10" width="548" height="246.667"/>
<g id="text">
	<g>
		<path fill="#4919DB" d="M161.459,379.451c-1.948,2.32-4.379,4.203-7.292,5.65c-2.914,1.447-6.17,2.171-9.769,2.171
			c-5.418,0-10.103-1.234-14.055-3.702c-3.952-2.467-6.968-5.937-9.045-10.408c-2.079-4.472-3.117-9.621-3.117-15.447
			c0-6.605,1.058-12.338,3.173-17.2c2.115-4.86,5.111-8.601,8.99-11.216c3.877-2.617,8.414-3.925,13.61-3.925
			c6.828,0,12.088,2.069,15.781,6.206c3.692,4.139,5.539,10.42,5.539,18.843h-35.625c-0.26,1.968-0.39,4.397-0.39,7.292
			c0,5.01,0.825,9.389,2.477,13.137c1.651,3.748,3.813,6.624,6.485,8.628s5.492,3.006,8.461,3.006
			c7.644,0,13.229-3.804,16.755-11.411l2.282,0.891C164.827,374.637,163.408,377.133,161.459,379.451z M153.36,337.843
			c-0.779-3.153-2.004-5.659-3.674-7.515s-3.729-2.783-6.179-2.783c-2.338,0-4.491,0.752-6.457,2.254
			c-1.967,1.504-3.628,3.805-4.982,6.902c-1.355,3.1-2.218,6.949-2.588,11.551h24.826
			C154.455,344.467,154.14,340.998,153.36,337.843z"/>
		<path fill="#4CDA64" d="M224.278,380.898c1.28,1.578,3.535,2.366,6.763,2.366v2.394c-2.413-0.223-4.769-0.334-7.069-0.334
			c-4.898,0-8.851,0.537-11.856,1.614v-10.131c-1.411,3.415-3.479,6.012-6.207,7.793s-6.059,2.672-9.992,2.672
			c-4.825,0-8.981-1.15-12.469-3.451c-3.489-2.301-6.17-5.752-8.043-10.354c-1.875-4.601-2.793-10.298-2.755-17.089
			c-0.038-6.643,1.113-12.302,3.451-16.978s5.464-8.183,9.379-10.521c3.915-2.338,8.229-3.507,12.942-3.507
			c2.895,0,5.557,0.548,7.988,1.642c2.43,1.096,4.332,2.793,5.706,5.094v-22.154c0-3.525-0.64-6.076-1.92-7.654
			c-1.28-1.576-3.535-2.365-6.763-2.365v-2.394c2.412,0.223,4.768,0.334,7.069,0.334c4.898,0,8.851-0.538,11.856-1.614v76.983
			C222.358,376.771,222.998,379.322,224.278,380.898z M199.369,327.99c-3.081,0-5.799,1.049-8.155,3.145
			c-2.357,2.098-4.203,5.271-5.539,9.52s-1.986,9.49-1.948,15.725c-0.038,9.129,1.252,15.985,3.869,20.568s6.485,6.874,11.606,6.874
			c1.966,0,3.822-0.501,5.566-1.503c1.744-1.002,3.265-2.495,4.564-4.48c1.298-1.985,2.227-4.37,2.783-7.153v-33.899
			C210,330.922,205.751,327.99,199.369,327.99z"/>
		<path fill="#4919DB" d="M277.721,327.267c3.377,0,6.271-0.111,8.684-0.334v2.282c-1.522,0.186-2.876,0.873-4.063,2.06
			c-1.188,1.188-2.302,3.173-3.34,5.956l-18.703,48.984l-3.896,9.908c-1.447,3.748-3.081,6.42-4.898,8.016
			c-2.153,1.967-5.121,2.95-8.906,2.95c-2.264,0-4.119-0.604-5.566-1.81s-2.171-2.886-2.171-5.037c0-1.818,0.538-3.275,1.614-4.369
			c1.076-1.096,2.561-1.643,4.453-1.643c1.67,0,3.052,0.464,4.147,1.392c1.094,0.927,1.642,2.245,1.642,3.952
			c0,2.263-1.021,3.971-3.062,5.121c0.148,0.074,0.371,0.111,0.668,0.111c4.193,0,7.421-2.97,9.686-8.906l4.063-10.409
			l-20.707-49.764c-1.299-2.634-2.588-4.36-3.869-5.177s-2.57-1.225-3.869-1.225v-2.394c3.563,0.483,7.292,0.724,11.188,0.724
			c3.265,0,8.201-0.24,14.807-0.724v2.394c-1.856,0-3.303,0.065-4.342,0.195c-1.04,0.13-1.902,0.482-2.588,1.057
			c-0.687,0.576-1.03,1.476-1.03,2.7c0,1.374,0.482,3.247,1.447,5.622l13.749,34.066l12.58-33.009
			c0.815-2.227,1.225-3.97,1.225-5.232c0-1.781-0.678-3.099-2.032-3.952s-3.516-1.373-6.484-1.559v-2.282
			C272.154,327.155,275.346,327.267,277.721,327.267z"/>
		<path fill="#4CDA64" d="M326.025,328.658c3.877,2.189,6.938,5.594,9.184,10.215c2.244,4.619,3.367,10.455,3.367,17.506
			s-1.123,12.877-3.367,17.479c-2.246,4.602-5.307,7.988-9.184,10.158c-3.879,2.172-8.322,3.257-13.332,3.257
			s-9.455-1.085-13.332-3.257c-3.879-2.17-6.939-5.557-9.184-10.158c-2.246-4.602-3.369-10.428-3.369-17.479
			s1.123-12.887,3.369-17.506c2.244-4.621,5.305-8.025,9.184-10.215c3.877-2.189,8.322-3.284,13.332-3.284
			S322.146,326.469,326.025,328.658z M301.867,334.67c-2.654,4.676-3.98,11.912-3.98,21.709c0,9.76,1.326,16.969,3.98,21.625
			c2.652,4.658,6.262,6.986,10.826,6.986s8.172-2.328,10.826-6.986c2.652-4.656,3.98-11.865,3.98-21.625
			c0-9.797-1.328-17.033-3.98-21.709c-2.654-4.676-6.262-7.014-10.826-7.014S304.52,329.994,301.867,334.67z"/>
		<path fill="#4CDA64" d="M385.117,328.658c3.877,2.189,6.938,5.594,9.184,10.215c2.245,4.619,3.368,10.455,3.368,17.506
			s-1.123,12.877-3.368,17.479s-5.307,7.988-9.184,10.158c-3.879,2.172-8.322,3.257-13.332,3.257s-9.454-1.085-13.332-3.257
			c-3.878-2.17-6.939-5.557-9.184-10.158c-2.246-4.602-3.368-10.428-3.368-17.479s1.122-12.887,3.368-17.506
			c2.244-4.621,5.306-8.025,9.184-10.215s8.322-3.284,13.332-3.284S381.238,326.469,385.117,328.658z M360.959,334.67
			c-2.654,4.676-3.98,11.912-3.98,21.709c0,9.76,1.326,16.969,3.98,21.625c2.652,4.658,6.262,6.986,10.826,6.986
			s8.173-2.328,10.826-6.986c2.653-4.656,3.98-11.865,3.98-21.625c0-9.797-1.327-17.033-3.98-21.709s-6.262-7.014-10.826-7.014
			S363.611,329.994,360.959,334.67z"/>
		<path fill="#4919DB" d="M410.893,375.305c1.038,3.043,2.635,5.419,4.787,7.125c2.151,1.707,5.046,2.561,8.684,2.561
			c1.67,0,3.274-0.361,4.814-1.086c1.54-0.723,2.812-1.893,3.813-3.506c1.002-1.615,1.503-3.702,1.503-6.263
			c0-2.077-0.529-3.942-1.586-5.595c-1.059-1.65-2.441-3.135-4.147-4.453c-1.707-1.316-4.101-2.939-7.181-4.87
			c-3.749-2.374-6.615-4.323-8.6-5.845c-1.986-1.521-3.666-3.377-5.038-5.566c-1.373-2.189-2.06-4.768-2.06-7.737
			c0-3.229,0.76-5.946,2.282-8.155c1.521-2.207,3.553-3.85,6.095-4.926s5.372-1.614,8.489-1.614c2.672,0,5.074,0.427,7.208,1.28
			s3.869,1.818,5.205,2.895c0.815,0.631,1.483,0.946,2.004,0.946c1.336,0,2.189-1.67,2.561-5.01h2.616
			c-0.298,3.712-0.445,10.169-0.445,19.371h-2.616c-0.816-5.01-2.431-9.147-4.843-12.413c-2.413-3.266-5.976-4.898-10.688-4.898
			c-2.747,0-4.991,0.771-6.735,2.311c-1.745,1.54-2.616,3.684-2.616,6.429c0,2.636,0.899,4.834,2.7,6.597
			c1.799,1.763,3.97,3.441,6.512,5.037s4.351,2.746,5.428,3.451c3.487,2.264,6.299,4.277,8.434,6.039
			c2.133,1.764,3.858,3.785,5.176,6.068c1.317,2.281,1.977,4.889,1.977,7.82c0,3.377-0.882,6.262-2.645,8.656
			c-1.763,2.393-4.128,4.212-7.097,5.455c-2.97,1.242-6.216,1.864-9.741,1.864c-3.377,0-6.383-0.538-9.018-1.614
			c-1.484-0.742-3.043-1.762-4.676-3.062c-0.298-0.297-0.649-0.445-1.058-0.445c-1.113,0-1.893,1.429-2.338,4.286h-2.616
			c0.297-4.342,0.445-11.93,0.445-22.767h2.616C409.056,368.385,409.854,372.262,410.893,375.305z"/>
	</g>
	<g>
		<path fill="#7E7E7E" d="M169.618,442c0,1.893-0.705,3.353-2.115,4.379c-1.41,1.027-3.39,1.54-5.938,1.54
			c-2.697,0-4.8-0.427-6.309-1.28v-2.857c0.977,0.495,2.025,0.885,3.145,1.169c1.119,0.284,2.199,0.427,3.238,0.427
			c1.608,0,2.845-0.256,3.711-0.77c0.866-0.514,1.299-1.296,1.299-2.348c0-0.791-0.343-1.469-1.03-2.031s-2.026-1.229-4.017-1.995
			c-1.893-0.705-3.238-1.32-4.036-1.847c-0.798-0.525-1.392-1.122-1.781-1.79s-0.584-1.466-0.584-2.394
			c0-1.657,0.674-2.965,2.022-3.924c1.348-0.959,3.197-1.438,5.548-1.438c2.189,0,4.329,0.445,6.42,1.336l-1.095,2.505
			c-2.041-0.841-3.891-1.262-5.548-1.262c-1.46,0-2.561,0.229-3.303,0.687s-1.113,1.089-1.113,1.893
			c0,0.544,0.139,1.009,0.417,1.392c0.278,0.384,0.727,0.748,1.345,1.095c0.618,0.347,1.806,0.848,3.563,1.503
			c2.412,0.879,4.042,1.763,4.889,2.653C169.194,439.532,169.618,440.652,169.618,442z"/>
		<path fill="#7E7E7E" d="M200.86,447.548v-13.229c0-1.62-0.347-2.836-1.039-3.646c-0.693-0.81-1.769-1.215-3.229-1.215
			c-1.917,0-3.334,0.551-4.249,1.651c-0.916,1.101-1.373,2.796-1.373,5.084v11.355h-3.08v-13.229c0-1.62-0.347-2.836-1.039-3.646
			c-0.693-0.81-1.775-1.215-3.247-1.215c-1.93,0-3.343,0.578-4.24,1.734c-0.897,1.157-1.345,3.053-1.345,5.688v10.669h-3.08v-20.336
			h2.505l0.501,2.783h0.148c0.581-0.989,1.401-1.763,2.458-2.319s2.242-0.835,3.553-0.835c3.179,0,5.257,1.15,6.234,3.451h0.148
			c0.606-1.063,1.484-1.905,2.635-2.523s2.461-0.928,3.934-0.928c2.301,0,4.023,0.591,5.167,1.772
			c1.144,1.182,1.716,3.07,1.716,5.668v13.267H200.86z"/>
		<path fill="#7E7E7E" d="M223.123,447.548l-0.612-2.895h-0.148c-1.015,1.274-2.026,2.138-3.034,2.589
			c-1.008,0.451-2.267,0.677-3.776,0.677c-2.017,0-3.597-0.52-4.741-1.559c-1.145-1.039-1.716-2.517-1.716-4.435
			c0-4.106,3.284-6.259,9.853-6.457l3.451-0.111v-1.262c0-1.596-0.343-2.773-1.03-3.535c-0.687-0.76-1.785-1.141-3.293-1.141
			c-1.695,0-3.612,0.52-5.752,1.559l-0.946-2.356c1.002-0.544,2.1-0.971,3.293-1.28c1.193-0.309,2.39-0.464,3.59-0.464
			c2.424,0,4.221,0.538,5.39,1.614s1.753,2.802,1.753,5.177v13.879H223.123z M216.165,445.377c1.917,0,3.423-0.525,4.518-1.577
			s1.642-2.523,1.642-4.416v-1.837l-3.08,0.13c-2.449,0.087-4.215,0.468-5.297,1.142c-1.083,0.674-1.624,1.723-1.624,3.145
			c0,1.113,0.337,1.961,1.011,2.542C214.009,445.086,214.952,445.377,216.165,445.377z"/>
		<path fill="#7E7E7E" d="M241.419,426.841c0.903,0,1.713,0.074,2.431,0.223l-0.427,2.857c-0.841-0.186-1.583-0.278-2.227-0.278
			c-1.646,0-3.052,0.668-4.221,2.004s-1.753,3-1.753,4.991v10.91h-3.08v-20.336h2.542l0.353,3.767h0.148
			c0.754-1.323,1.664-2.344,2.728-3.062C238.976,427.199,240.145,426.841,241.419,426.841z"/>
		<path fill="#7E7E7E" d="M256.434,445.377c0.544,0,1.07-0.04,1.577-0.121c0.507-0.08,0.909-0.163,1.206-0.25v2.356
			c-0.334,0.161-0.826,0.294-1.475,0.399c-0.65,0.104-1.234,0.157-1.754,0.157c-3.934,0-5.9-2.071-5.9-6.216v-12.098h-2.913v-1.484
			l2.913-1.28l1.299-4.342h1.781v4.713h5.9v2.394h-5.9v11.968c0,1.225,0.291,2.165,0.872,2.82S255.419,445.377,256.434,445.377z"/>
		<path fill="#7E7E7E" d="M284.514,447.919c-1.324,0-2.532-0.245-3.627-0.733s-2.014-1.239-2.756-2.254h-0.223
			c0.148,1.188,0.223,2.313,0.223,3.377v8.368h-3.08v-29.465h2.506l0.426,2.783h0.148c0.792-1.113,1.713-1.917,2.766-2.412
			c1.051-0.495,2.256-0.742,3.617-0.742c2.697,0,4.777,0.922,6.244,2.765c1.465,1.844,2.199,4.429,2.199,7.756
			c0,3.34-0.746,5.935-2.236,7.783C289.23,446.994,287.16,447.919,284.514,447.919z M284.068,429.457
			c-2.078,0-3.58,0.575-4.508,1.726s-1.404,2.981-1.43,5.492v0.687c0,2.857,0.477,4.902,1.43,6.133
			c0.951,1.23,2.479,1.846,4.582,1.846c1.756,0,3.133-0.711,4.129-2.134s1.494-3.383,1.494-5.882c0-2.535-0.498-4.48-1.494-5.836
			C287.275,430.135,285.875,429.457,284.068,429.457z"/>
		<path fill="#7E7E7E" d="M311.516,447.548l-0.612-2.895h-0.148c-1.015,1.274-2.025,2.138-3.034,2.589
			c-1.008,0.451-2.267,0.677-3.775,0.677c-2.017,0-3.597-0.52-4.74-1.559c-1.145-1.039-1.717-2.517-1.717-4.435
			c0-4.106,3.284-6.259,9.853-6.457l3.451-0.111v-1.262c0-1.596-0.343-2.773-1.03-3.535c-0.686-0.76-1.784-1.141-3.293-1.141
			c-1.695,0-3.612,0.52-5.752,1.559l-0.946-2.356c1.002-0.544,2.1-0.971,3.294-1.28c1.193-0.309,2.39-0.464,3.59-0.464
			c2.424,0,4.221,0.538,5.391,1.614c1.168,1.076,1.753,2.802,1.753,5.177v13.879H311.516z M304.558,445.377
			c1.917,0,3.423-0.525,4.519-1.577c1.094-1.052,1.642-2.523,1.642-4.416v-1.837l-3.08,0.13c-2.449,0.087-4.215,0.468-5.298,1.142
			c-1.082,0.674-1.623,1.723-1.623,3.145c0,1.113,0.337,1.961,1.012,2.542C302.402,445.086,303.345,445.377,304.558,445.377z"/>
		<path fill="#7E7E7E" d="M329.813,426.841c0.902,0,1.713,0.074,2.431,0.223l-0.427,2.857c-0.842-0.186-1.584-0.278-2.227-0.278
			c-1.646,0-3.053,0.668-4.221,2.004c-1.17,1.336-1.754,3-1.754,4.991v10.91h-3.08v-20.336h2.542l0.353,3.767h0.148
			c0.754-1.323,1.663-2.344,2.728-3.062C327.369,427.199,328.538,426.841,329.813,426.841z"/>
		<path fill="#7E7E7E" d="M339.953,437.139c0.531-0.754,1.342-1.744,2.431-2.969l6.568-6.958h3.655l-8.238,8.665l8.813,11.671
			h-3.729l-7.181-9.611l-2.319,2.004v7.607h-3.043v-28.871h3.043v15.308c0,0.681-0.05,1.732-0.148,3.154H339.953z"/>
		<path fill="#7E7E7E" d="M357.523,421.701c0-0.705,0.173-1.221,0.52-1.549c0.346-0.328,0.779-0.492,1.299-0.492
			c0.494,0,0.921,0.167,1.28,0.501c0.358,0.334,0.538,0.848,0.538,1.54c0,0.693-0.18,1.209-0.538,1.549
			c-0.359,0.341-0.786,0.511-1.28,0.511c-0.52,0-0.953-0.17-1.299-0.511C357.696,422.91,357.523,422.395,357.523,421.701z
			 M360.863,447.548h-3.08v-20.336h3.08V447.548z"/>
		<path fill="#7E7E7E" d="M381.604,447.548v-13.155c0-1.657-0.378-2.895-1.132-3.711c-0.755-0.816-1.937-1.225-3.544-1.225
			c-2.128,0-3.687,0.575-4.676,1.726c-0.99,1.15-1.484,3.05-1.484,5.696v10.669h-3.08v-20.336h2.505l0.501,2.783h0.148
			c0.631-1.002,1.515-1.778,2.653-2.329c1.138-0.55,2.405-0.825,3.804-0.825c2.449,0,4.292,0.591,5.529,1.772
			c1.236,1.182,1.855,3.07,1.855,5.668v13.267H381.604z"/>
		<path fill="#7E7E7E" d="M408.038,427.212v1.948l-3.767,0.445c0.346,0.434,0.655,0.999,0.928,1.697
			c0.271,0.699,0.408,1.488,0.408,2.366c0,1.991-0.681,3.581-2.041,4.769c-1.361,1.188-3.229,1.781-5.604,1.781
			c-0.606,0-1.176-0.049-1.707-0.148c-1.312,0.693-1.967,1.564-1.967,2.616c0,0.557,0.229,0.968,0.687,1.233
			c0.457,0.267,1.243,0.399,2.356,0.399h3.6c2.201,0,3.894,0.464,5.074,1.392c1.182,0.928,1.772,2.275,1.772,4.045
			c0,2.251-0.903,3.967-2.709,5.148c-1.807,1.182-4.441,1.772-7.904,1.772c-2.66,0-4.71-0.495-6.151-1.484
			c-1.44-0.989-2.161-2.388-2.161-4.193c0-1.237,0.396-2.308,1.188-3.21c0.791-0.902,1.904-1.516,3.34-1.837
			c-0.52-0.235-0.956-0.6-1.308-1.095c-0.354-0.494-0.529-1.07-0.529-1.726c0-0.742,0.197-1.392,0.594-1.948
			c0.396-0.557,1.021-1.095,1.874-1.614c-1.052-0.433-1.908-1.169-2.569-2.208c-0.662-1.039-0.993-2.227-0.993-3.563
			c0-2.227,0.668-3.943,2.004-5.148c1.336-1.207,3.229-1.81,5.678-1.81c1.063,0,2.022,0.124,2.876,0.371H408.038z M391.821,450.962
			c0,1.101,0.464,1.936,1.392,2.505c0.928,0.568,2.257,0.854,3.989,0.854c2.585,0,4.499-0.387,5.743-1.16
			c1.242-0.773,1.864-1.821,1.864-3.145c0-1.102-0.341-1.865-1.021-2.291c-0.681-0.428-1.961-0.641-3.841-0.641h-3.692
			c-1.398,0-2.486,0.334-3.266,1.002S391.821,449.713,391.821,450.962z M393.491,433.725c0,1.423,0.401,2.499,1.206,3.229
			c0.804,0.73,1.923,1.095,3.358,1.095c3.006,0,4.509-1.46,4.509-4.379c0-3.056-1.521-4.583-4.564-4.583
			c-1.447,0-2.561,0.39-3.34,1.169S393.491,432.191,393.491,433.725z"/>
	</g>
</g>
</svg>
