<svg id="Capa_1" enable-background="new 0 0 512 512" height="512" viewBox="0 0 512 512" width="512" xmlns="http://www.w3.org/2000/svg"><g><path d="m190.894 394.709-152.17 14v68.86h304.34v-68.86z" fill="#f3fdff"/><path d="m343.064 408.709v68.86h-152.17v-82.86z" fill="#d7f3f7"/><path d="m38.724 0v68.86l152.17 40.33 152.17-40.33v-68.86z" fill="#f3fdff"/><path d="m343.064 0v68.86l-152.17 40.33v-109.19z" fill="#d7f3f7"/><path d="m328.064 83.86v309.849h-274.34v-309.849h80.74l15.46 25.33h81.94l15.46-25.33z" fill="#39689e"/><path d="m328.064 83.86v309.849h-137.17v-284.519h40.97l15.46-25.33z" fill="#224370"/><path d="m238.904 68.86-15.46 25.33h-65.1l-15.46-25.33h-104.16v339.85h304.34v-339.85zm74.16 309.849h-244.34v-279.849h57.32l15.46 25.33h98.78l15.46-25.33h57.32z" fill="#4abbef"/><path d="m343.064 68.86v339.849h-152.17v-30h122.17v-279.849h-57.32l-15.46 25.33h-49.39v-30h32.55l15.46-25.33z" fill="#009be5"/><path d="m264.036 182.86v146.28h-146.28v-146.28h58.14l15 14 15-14z" fill="#ffda2d"/><path d="m264.036 182.86v146.28h-73.14v-132.28l15-14z" fill="#fcbe00"/><path d="m175.896 182.86h30v44.14h-30z" fill="#ffa001"/><path d="m190.896 182.86h15v44.14h-15z" fill="#f87f02"/><path d="m473.276 402.29c0 60.59-49.12 109.71-109.71 109.71-60.6 0-109.72-49.12-109.72-109.71 0-60.6 49.12-109.72 109.72-109.72 60.59 0 109.71 49.12 109.71 109.72z" fill="#83e470"/><path d="m473.276 402.29c0 60.59-49.12 109.71-109.71 109.71v-219.43c60.59 0 109.71 49.12 109.71 109.72z" fill="#01b763"/><path d="m420.976 384.52-57.41 57.41-9.95 9.95-47.47-47.47 21.22-21.21 26.25 26.25 9.95-9.95 36.19-36.19z" fill="#f3fdff"/><path d="m420.976 384.52-57.41 57.41v-42.43l36.19-36.19z" fill="#d7f3f7"/></g></svg>