<?xml version="1.0" encoding="iso-8859-1"?>
<!-- Generator: Adobe Illustrator 19.0.0, SVG Export Plug-In . SVG Version: 6.00 Build 0)  -->
<svg version="1.1" id="Capa_1" xmlns="http://www.w3.org/2000/svg" xmlns:xlink="http://www.w3.org/1999/xlink" x="0px" y="0px"
	 viewBox="0 0 512 512" style="enable-background:new 0 0 512 512;" xml:space="preserve">
<path style="fill:#1081E0;" d="M443.733,202.24C443.733,311.578,256,499.2,256,499.2S68.267,311.578,68.267,202.24
	S152.32,4.267,256,4.267S443.733,92.902,443.733,202.24z"/>
<circle style="fill:#FFFFFF;" cx="256" cy="192" r="145.067"/>
<g>
	<path style="fill:#7383BF;" d="M503.467,507.733h-34.133c-4.71,0-8.533-3.823-8.533-8.533c0-4.71,3.823-8.533,8.533-8.533h34.133
		c4.71,0,8.533,3.823,8.533,8.533C512,503.91,508.177,507.733,503.467,507.733z"/>
	<path style="fill:#7383BF;" d="M204.8,507.733H8.533C3.823,507.733,0,503.91,0,499.2c0-4.71,3.823-8.533,8.533-8.533H204.8
		c4.71,0,8.533,3.823,8.533,8.533C213.333,503.91,209.51,507.733,204.8,507.733z"/>
	<path style="fill:#7383BF;" d="M409.6,507.733H307.2c-4.71,0-8.533-3.823-8.533-8.533c0-4.71,3.823-8.533,8.533-8.533h102.4
		c4.71,0,8.533,3.823,8.533,8.533C418.133,503.91,414.31,507.733,409.6,507.733z"/>
</g>
<path style="fill:#1081E0;" d="M273.067,106.667h-51.2H204.8v170.667h34.133v-68.267h34.133c28.271,0,51.2-22.921,51.2-51.2
	S301.338,106.667,273.067,106.667z M273.067,174.933h-34.133V140.8h34.133c9.421,0,17.067,7.637,17.067,17.067
	C290.133,167.296,282.487,174.933,273.067,174.933z"/>
<path style="fill:#1F436D;" d="M256,499.2c0,0,3.132-3.14,8.533-8.764V422.4c0-4.71-3.823-8.533-8.533-8.533
	c-4.71,0-8.533,3.823-8.533,8.533v68.036C252.868,496.06,256,499.2,256,499.2z"/>
<g>
</g>
<g>
</g>
<g>
</g>
<g>
</g>
<g>
</g>
<g>
</g>
<g>
</g>
<g>
</g>
<g>
</g>
<g>
</g>
<g>
</g>
<g>
</g>
<g>
</g>
<g>
</g>
<g>
</g>
</svg>
