<svg id="Capa_1" enable-background="new 0 0 512 512" height="512" viewBox="0 0 512 512" width="512" xmlns="http://www.w3.org/2000/svg"><g><path d="m171.495 387.328v25.29c0 9.217 7.472 16.689 16.689 16.689h21.556c9.217 0 16.689-7.472 16.689-16.689v-25.29z" fill="#5a5a5a"/><path d="m409.042 387.328v25.29c0 9.217 7.472 16.689 16.689 16.689h21.556c9.217 0 16.689-7.472 16.689-16.689v-25.29z" fill="#5a5a5a"/><path d="m488.446 342.217c.381 0 .756.024 1.129.057l-2.417-56.779c-.678-15.935-13.794-28.504-29.743-28.504h-279.36c-15.949 0-29.064 12.569-29.743 28.504l-2.417 56.779c.989-.089 339.99-.057 342.551-.057z" fill="#08a9f1"/><path d="m488.446 387.328h-341.422c-6.913 0-12.517-5.604-12.517-12.517v-20.078c0-6.913 5.604-12.517 12.517-12.517h341.423c6.913 0 12.517 5.604 12.517 12.517v20.078c-.001 6.913-5.605 12.517-12.518 12.517z" fill="#cecece"/><circle cx="198.961" cy="299.632" fill="#fec165" r="18.01"/><circle cx="436.509" cy="299.632" fill="#fec165" r="18.01"/><path d="m382.127 315.07h-128.784c-3.225 0-5.839-2.614-5.839-5.839v-19.196c0-3.225 2.614-5.839 5.839-5.839h128.784c3.225 0 5.839 2.614 5.839 5.839v19.196c.001 3.224-2.614 5.839-5.839 5.839z" fill="#e2e2e2"/><path d="m445.976 256.991-6.803-81.375c-1.506-18.016-16.568-31.872-34.647-31.872h-173.582c-18.079 0-33.141 13.856-34.647 31.872l-6.803 81.375z" fill="#0290cf"/><path d="m220.82 228.175 4.193-50.158c.256-3.06 2.861-5.457 5.932-5.457h173.581c3.07 0 5.675 2.397 5.932 5.456l4.193 50.159z" fill="#dff6fd"/><path d="m186.949 223.48h-32.567c-3.84 0-6.954 3.113-6.954 6.954v16.128c0 5.761 4.67 10.43 10.43 10.43h31.635l2.727-32.618c-1.65-.577-3.423-.894-5.271-.894z" fill="#01c0fa"/><path d="m481.087 223.48h-32.567c-1.848 0-3.621.317-5.272.894l2.727 32.618h31.635c5.761 0 10.43-4.67 10.43-10.43v-16.128c.001-3.841-3.112-6.954-6.953-6.954z" fill="#08a9f1"/><path d="m507.883 465.146h-503.252c-2.274 0-4.117-1.843-4.117-4.117v-27.606c0-2.274 1.843-4.117 4.117-4.117h503.252c2.274 0 4.117 1.843 4.117 4.117v27.606c0 2.274-1.843 4.117-4.117 4.117z" fill="#9c9c9c"/><path d="m65.865 429.307h-24.699c-1.421 0-2.573-1.152-2.573-2.573v-263.072h29.845v263.072c0 1.421-1.152 2.573-2.573 2.573z" fill="#5a5a5a"/><g><path d="m428.491 257.004c15.949 0 29.065 12.569 29.743 28.504l2.414 56.707c16.944.001 27.358.002 27.799.002.381 0 .756.024 1.129.057l-2.417-56.778c-.678-15.935-13.794-28.504-29.743-28.504z" fill="#0290cf"/></g><path d="m375.602 143.757c18.079 0 33.141 13.856 34.647 31.872l6.802 81.362h28.926l-6.803-81.374c-1.506-18.017-16.568-31.872-34.647-31.872z" fill="#017bae"/><path d="m507.883 465.146h-503.252c-2.274 0-4.117-1.843-4.117-4.117v-27.606c0-2.274 1.843-4.117 4.117-4.117h503.252c2.274 0 4.117 1.843 4.117 4.117v27.606c0 2.274-1.843 4.117-4.117 4.117z" fill="#9c9c9c"/><path d="m507.883 429.307h-35.042c2.274 0 4.117 1.843 4.117 4.116v27.606c0 2.274-1.843 4.117-4.117 4.117h35.042c2.274 0 4.117-1.843 4.117-4.117v-27.606c0-2.273-1.843-4.116-4.117-4.116z" fill="#838383"/><path d="m488.446 387.328h-341.422c-6.913 0-12.517-5.604-12.517-12.517v-20.078c0-6.913 5.604-12.517 12.517-12.517h341.423c6.913 0 12.517 5.604 12.517 12.517v20.078c-.001 6.913-5.605 12.517-12.518 12.517z" fill="#cecece"/><path d="m488.446 342.217h-35.042c6.913 0 12.516 5.604 12.516 12.517v20.078c0 6.913-5.604 12.517-12.516 12.517h35.042c6.913 0 12.517-5.604 12.517-12.517v-20.078c0-6.914-5.604-12.517-12.517-12.517z" fill="#bfbfbf"/><path d="m38.593 163.662h29.845v85.55h-29.845z" fill="#444"/><path d="m93.652 220.01h-80.273c-7.389 0-13.379-5.99-13.379-13.379v-146.398c0-7.389 5.99-13.379 13.379-13.379h80.273c7.389 0 13.379 5.99 13.379 13.379v146.398c0 7.389-5.99 13.379-13.379 13.379z" fill="#eb5569"/><path d="m93.652 46.854h-26.282c7.389 0 13.379 5.99 13.379 13.379v146.398c0 7.389-5.99 13.379-13.379 13.379h26.282c7.389 0 13.379-5.99 13.379-13.379v-146.398c0-7.389-5.99-13.379-13.379-13.379z" fill="#e53950"/><g><path d="m34.119 178.766c-4.263 0-7.719-3.455-7.719-7.719v-63.858c0-10.527 8.564-19.091 19.09-19.091h8.613c17.031 0 30.886 13.856 30.886 30.887s-13.855 30.886-30.886 30.886h-12.266v21.176c0 4.264-3.455 7.719-7.718 7.719zm7.718-44.332h12.266c8.519 0 15.449-6.931 15.449-15.449 0-8.52-6.931-15.45-15.449-15.45h-8.613c-2.014 0-3.653 1.639-3.653 3.654z" fill="#fdd1d5"/></g><path d="m381.164 181.321c3.07 0 5.675 2.397 5.932 5.456l3.461 41.398h24.094l-4.193-50.159c-.256-3.059-2.861-5.456-5.932-5.456h-173.581c-3.07 0-5.676 2.397-5.932 5.457l-.276 3.303h156.427z" fill="#c8effe"/><g fill="#444"><path d="m203.067 387.328v25.29c0 8.912-6.991 16.171-15.786 16.643.301.016.598.046.903.046h21.556c9.217 0 16.689-7.472 16.689-16.689v-25.29z"/><path d="m440.614 387.328v25.29c0 8.912-6.991 16.171-15.786 16.643.301.016.598.046.903.046h21.556c9.217 0 16.689-7.472 16.689-16.689v-25.29z"/></g></g></svg>